<svg width="30" height="30" viewBox="0 0 30 30" fill="none" xmlns="http://www.w3.org/2000/svg">
<path d="M15 7.26563C13.4703 7.26563 11.9749 7.71924 10.703 8.5691C9.4311 9.41897 8.43977 10.6269 7.85437 12.0402C7.26898 13.4535 7.11581 15.0086 7.41424 16.5089C7.71268 18.0092 8.4493 19.3874 9.53097 20.469C10.6126 21.5507 11.9908 22.2873 13.4911 22.5858C14.9914 22.8842 16.5465 22.731 17.9598 22.1456C19.3731 21.5602 20.581 20.5689 21.4309 19.297C22.2808 18.0251 22.7344 16.5297 22.7344 15C22.732 12.9494 21.9164 10.9835 20.4664 9.53357C19.0165 8.08361 17.0506 7.26798 15 7.26563ZM15 21.7969C13.6557 21.7969 12.3416 21.3982 11.2239 20.6514C10.1061 19.9045 9.23495 18.843 8.72051 17.6011C8.20607 16.3591 8.07147 14.9925 8.33373 13.674C8.59599 12.3555 9.24333 11.1444 10.1939 10.1939C11.1444 9.24332 12.3555 8.59598 13.674 8.33373C14.9925 8.07147 16.3591 8.20607 17.6011 8.72051C18.843 9.23495 19.9045 10.1061 20.6514 11.2239C21.3982 12.3416 21.7969 13.6557 21.7969 15C21.7948 16.802 21.078 18.5296 19.8038 19.8038C18.5296 21.078 16.802 21.7948 15 21.7969Z" fill="#5CFF4F"/>
<path d="M15 10.7812C14.1656 10.7812 13.35 11.0287 12.6562 11.4922C11.9624 11.9558 11.4217 12.6147 11.1024 13.3856C10.7831 14.1564 10.6995 15.0047 10.8623 15.823C11.0251 16.6414 11.4269 17.3931 12.0169 17.9831C12.6069 18.5731 13.3586 18.9749 14.177 19.1377C14.9953 19.3005 15.8436 19.2169 16.6144 18.8976C17.3853 18.5783 18.0442 18.0376 18.5078 17.3438C18.9713 16.65 19.2188 15.8344 19.2188 15C19.2175 13.8815 18.7726 12.8092 17.9817 12.0183C17.1908 11.2274 16.1185 10.7825 15 10.7812ZM15 18.2812C14.351 18.2812 13.7166 18.0888 13.177 17.7283C12.6374 17.3677 12.2169 16.8552 11.9685 16.2557C11.7202 15.6561 11.6552 14.9964 11.7818 14.3599C11.9084 13.7234 12.2209 13.1387 12.6798 12.6798C13.1387 12.2209 13.7234 11.9084 14.3599 11.7818C14.9964 11.6552 15.6561 11.7202 16.2557 11.9685C16.8553 12.2169 17.3677 12.6374 17.7283 13.177C18.0888 13.7166 18.2813 14.351 18.2813 15C18.2802 15.8699 17.9342 16.7039 17.319 17.319C16.7039 17.9342 15.8699 18.2802 15 18.2812Z" fill="#5CFF4F"/>
<path d="M4.06913 12.8302C4.17438 12.83 4.27652 12.7945 4.35913 12.7293C4.44175 12.6641 4.50002 12.573 4.5246 12.4706C4.99572 10.5463 5.98558 8.788 7.38647 7.3871C8.78737 5.9862 10.5456 4.99633 12.47 4.52521C12.5888 4.49437 12.6908 4.41814 12.7541 4.31292C12.8173 4.20769 12.8367 4.08185 12.8082 3.96244C12.7797 3.84303 12.7055 3.73957 12.6015 3.6743C12.4975 3.60903 12.3721 3.58714 12.2521 3.61335C10.1597 4.12551 8.24786 5.20173 6.72459 6.72492C5.20132 8.24811 4.12499 10.1599 3.61272 12.2523C3.5966 12.3212 3.59622 12.3928 3.61161 12.4619C3.62701 12.531 3.65778 12.5957 3.70164 12.6512C3.7455 12.7068 3.80132 12.7517 3.86494 12.7827C3.92857 12.8137 3.99836 12.8299 4.06913 12.8302Z" fill="#5CFF4F"/>
<path d="M26.0404 17.183C25.9195 17.1548 25.7924 17.1754 25.6867 17.2404C25.5809 17.3053 25.505 17.4094 25.4755 17.53C25.0044 19.4543 24.0146 21.2126 22.6137 22.6135C21.2128 24.0144 19.4545 25.0042 17.5302 25.4754C17.4202 25.5038 17.3242 25.571 17.26 25.6647C17.1958 25.7584 17.1677 25.8722 17.1809 25.985C17.1942 26.0979 17.2478 26.2021 17.332 26.2784C17.4161 26.3547 17.5251 26.3979 17.6386 26.4001C19.7555 25.9103 21.6945 24.8419 23.2394 23.314C24.7843 21.7862 25.8742 19.8591 26.3874 17.7479C26.4017 17.688 26.4041 17.6259 26.3944 17.5651C26.3847 17.5043 26.3631 17.446 26.3309 17.3936C26.2987 17.3411 26.2565 17.2955 26.2066 17.2594C26.1568 17.2233 26.1003 17.1973 26.0404 17.183Z" fill="#5CFF4F"/>
<path d="M12.47 25.4751C10.5456 25.004 8.78734 24.0142 7.38644 22.6133C5.98554 21.2124 4.99567 19.4541 4.52455 17.5297C4.51025 17.4699 4.48429 17.4134 4.44816 17.3636C4.41202 17.3137 4.36643 17.2715 4.31398 17.2393C4.26152 17.207 4.20324 17.1855 4.14245 17.1758C4.08165 17.1661 4.01955 17.1685 3.95967 17.1828C3.8998 17.1971 3.84333 17.223 3.79349 17.2592C3.74365 17.2953 3.70141 17.3409 3.66919 17.3933C3.63697 17.4458 3.6154 17.5041 3.6057 17.5649C3.59601 17.6257 3.59838 17.6878 3.61269 17.7476C4.12593 19.8589 5.21581 21.786 6.76068 23.3138C8.30556 24.8416 10.2446 25.9101 12.3615 26.3998C12.475 26.3976 12.5839 26.3543 12.6679 26.278C12.752 26.2017 12.8056 26.0976 12.8189 25.9848C12.8321 25.872 12.8041 25.7583 12.7399 25.6646C12.6758 25.5709 12.5799 25.5036 12.47 25.4751Z" fill="#5CFF4F"/>
<path d="M17.5299 4.52461C19.4543 4.99573 21.2126 5.98559 22.6135 7.38649C24.0144 8.78739 25.0042 10.5457 25.4754 12.47C25.5043 12.5909 25.5801 12.6954 25.6861 12.7604C25.7921 12.8255 25.9195 12.8457 26.0405 12.8168C26.1614 12.7878 26.2659 12.712 26.3309 12.6061C26.3959 12.5001 26.4162 12.3726 26.3872 12.2517C25.875 10.1593 24.7986 8.24752 23.2754 6.72433C21.7521 5.20115 19.8403 4.12491 17.7479 3.61275C17.6277 3.58603 17.5019 3.60761 17.3976 3.67284C17.2932 3.73807 17.2187 3.84172 17.1901 3.96142C17.1615 4.08111 17.1811 4.20725 17.2447 4.31262C17.3083 4.41799 17.4107 4.49413 17.5299 4.52461Z" fill="#5CFF4F"/>
<path d="M14.5807 5.36589C14.6197 5.44375 14.6795 5.50923 14.7536 5.55499C14.8276 5.60075 14.913 5.62499 15 5.62499C15.0871 5.62499 15.1724 5.60075 15.2465 5.55499C15.3205 5.50923 15.3804 5.44375 15.4193 5.36589L16.8256 2.55339C16.8613 2.48192 16.8782 2.40251 16.8746 2.32268C16.871 2.24286 16.847 2.16528 16.805 2.09732C16.763 2.02935 16.7043 1.97325 16.6345 1.93434C16.5648 1.89543 16.4862 1.875 16.4063 1.875H13.5938C13.5139 1.875 13.4353 1.89543 13.3655 1.93434C13.2957 1.97325 13.237 2.02935 13.195 2.09732C13.153 2.16528 13.1291 2.24286 13.1255 2.32268C13.1219 2.40251 13.1387 2.48192 13.1745 2.55339L14.5807 5.36589ZM15.6478 2.81249L15 4.1082L14.3523 2.8125L15.6478 2.81249Z" fill="#5CFF4F"/>
<path d="M5.36591 14.5806L2.55341 13.1744C2.48193 13.1387 2.40252 13.1219 2.32271 13.1255C2.2429 13.1291 2.16534 13.153 2.09738 13.195C2.02943 13.237 1.97333 13.2957 1.93441 13.3655C1.89549 13.4353 1.87504 13.5138 1.875 13.5937V16.4062C1.87502 16.4861 1.89545 16.5647 1.93437 16.6345C1.97328 16.7042 2.02938 16.7629 2.09735 16.8049C2.16531 16.8469 2.24288 16.8709 2.3227 16.8745C2.40252 16.8781 2.48193 16.8612 2.55341 16.8255L5.36588 15.4193C5.44277 15.3795 5.50725 15.3193 5.55226 15.2454C5.59727 15.1714 5.62108 15.0865 5.62108 15C5.62109 14.9134 5.59729 14.8285 5.55228 14.7545C5.50728 14.6806 5.4428 14.6204 5.36591 14.5806ZM2.8125 15.6477V14.3522L4.10797 15L2.8125 15.6477Z" fill="#5CFF4F"/>
<path d="M15.4193 24.6338C15.376 24.5611 15.3146 24.501 15.2411 24.4592C15.1676 24.4175 15.0845 24.3955 14.9999 24.3955C14.9154 24.3955 14.8323 24.4175 14.7588 24.4592C14.6853 24.501 14.6239 24.5611 14.5806 24.6338L13.1744 27.4463C13.1396 27.5178 13.1235 27.597 13.1276 27.6765C13.1316 27.756 13.1557 27.8331 13.1975 27.9008C13.2393 27.9685 13.2976 28.0245 13.3668 28.0636C13.4361 28.1028 13.5141 28.1238 13.5937 28.1247H16.4062C16.4858 28.1238 16.5638 28.1028 16.6331 28.0636C16.7023 28.0245 16.7606 27.9685 16.8024 27.9008C16.8442 27.8331 16.8683 27.756 16.8723 27.6765C16.8764 27.597 16.8603 27.5178 16.8255 27.4463L15.4193 24.6338ZM14.3522 27.1872L14.9999 25.8917L15.6477 27.1872H14.3522Z" fill="#5CFF4F"/>
<path d="M27.9025 13.195C27.8346 13.153 27.757 13.1291 27.6772 13.1255C27.5974 13.1219 27.518 13.1387 27.4466 13.1744L24.6341 14.5806C24.5572 14.6204 24.4927 14.6806 24.4477 14.7545C24.4027 14.8285 24.3789 14.9134 24.3789 14.9999C24.3789 15.0865 24.4027 15.1714 24.4477 15.2454C24.4927 15.3193 24.5572 15.3795 24.6341 15.4193L27.4466 16.8255C27.5181 16.8612 27.5975 16.8781 27.6773 16.8745C27.7571 16.8709 27.8347 16.8469 27.9026 16.8049C27.9706 16.7629 28.0267 16.7042 28.0656 16.6345C28.1045 16.5647 28.125 16.4861 28.125 16.4062V13.5937C28.125 13.5138 28.1045 13.4352 28.0656 13.3654C28.0267 13.2957 27.9705 13.237 27.9025 13.195ZM27.1875 15.6477L25.892 15L27.1875 14.3522V15.6477Z" fill="#5CFF4F"/>
</svg>
