<svg width="48" height="48" viewBox="0 0 48 48" fill="none" xmlns="http://www.w3.org/2000/svg">
<g clip-path="url(#clip0_1707_3758)">
<path d="M41 24.8501C41.0018 24.5643 40.8645 24.2983 40.6378 24.1489H40.6339L40.6196 24.1404L28.8382 16.6434C28.7874 16.6064 28.7346 16.5727 28.6801 16.5422C28.2252 16.29 27.6849 16.29 27.23 16.5422C27.1755 16.5727 27.1227 16.6064 27.0718 16.6434L15.2905 24.1404L15.2762 24.1489C14.9162 24.3896 14.8058 24.8985 15.0297 25.2856C15.0957 25.3997 15.1865 25.4947 15.2944 25.5624L27.0758 33.0594C27.1268 33.096 27.1796 33.1298 27.2339 33.1606C27.6888 33.4129 28.2292 33.4129 28.6841 33.1606C28.7384 33.1298 28.7912 33.0961 28.8422 33.0594L40.6236 25.5624C40.859 25.4149 41.0027 25.143 41 24.8501Z" fill="#0A2767"/>
<path d="M16.6639 19.8443H24.3953V27.4629H16.6639V19.8443ZM39.4186 12.1V8.61499C39.4372 7.74366 38.7956 7.02088 37.9851 7H17.9219C17.1114 7.02088 16.4698 7.74366 16.4884 8.61499V12.1L28.3488 15.5L39.4186 12.1Z" fill="#0364B8"/>
<path d="M16.4884 12.1001H24.3953V19.7501H16.4884V12.1001Z" fill="#0078D4"/>
<path d="M32.3023 12.1001H24.3953V19.7501L32.3023 27.4001H39.4186V19.7501L32.3023 12.1001Z" fill="#28A8EA"/>
<path d="M24.3953 19.75H32.3023V27.4H24.3953V19.75Z" fill="#0078D4"/>
<path d="M24.3953 27.3999H32.3023V35.0499H24.3953V27.3999Z" fill="#0364B8"/>
<path d="M16.6639 27.4629H24.3953V34.3887H16.6639V27.4629Z" fill="#14447D"/>
<path d="M32.3023 27.3999H39.4186V35.0499H32.3023V27.3999Z" fill="#0078D4"/>
<path d="M40.6378 25.5157L40.6228 25.5242L28.8414 32.6471C28.79 32.6811 28.7378 32.7134 28.6833 32.7423C28.4832 32.8448 28.2658 32.9026 28.0444 32.9123L27.4008 32.5077C27.3464 32.4784 27.2936 32.4458 27.2426 32.41L15.3031 25.0847H15.2976L14.907 24.8501V39.2695C14.9131 40.2315 15.6433 41.0062 16.5382 41.0001H39.3941C39.4075 41.0001 39.4194 40.9933 39.4336 40.9933C39.6226 40.9803 39.809 40.9385 39.9871 40.8692C40.064 40.8341 40.1383 40.7926 40.2093 40.7451C40.2622 40.7128 40.3532 40.6423 40.3532 40.6423C40.7582 40.3201 40.998 39.8112 41 39.2695V24.8501C40.9997 25.1259 40.8613 25.3802 40.6378 25.5157Z" fill="url(#paint0_linear_1707_3758)"/>
<path opacity="0.5" d="M40.3674 24.7932V25.6772L28.0484 34.7951L15.2944 25.0907C15.2944 25.086 15.2909 25.0822 15.2865 25.0822L14.1163 24.3257V23.6882L14.5986 23.6797L15.6186 24.3087L15.6423 24.3172L15.7293 24.3767C15.7293 24.3767 27.7162 31.7292 27.7479 31.7462L28.2065 32.0352C28.246 32.0182 28.2855 32.0012 28.333 31.9842C28.3567 31.9672 40.233 24.7847 40.233 24.7847L40.3674 24.7932Z" fill="#0A2767"/>
<path d="M40.6378 25.5157L40.6228 25.525L28.8414 32.648C28.79 32.682 28.7378 32.7143 28.6833 32.7432C28.2257 32.9835 27.6907 32.9835 27.2331 32.7432C27.1789 32.7143 27.1262 32.6826 27.075 32.648L15.2936 25.525L15.2794 25.5157C15.0519 25.3831 14.9093 25.1282 14.907 24.8501V39.2695C14.9126 40.2314 15.6426 41.0062 16.5373 41.0001C16.5373 41.0001 16.5374 41.0001 16.5374 41.0001H39.3696C40.2643 41.0062 40.9943 40.2314 41 39.2696C41 39.2696 41 39.2695 41 39.2695V24.8501C40.9997 25.1259 40.8613 25.3802 40.6378 25.5157Z" fill="#1490DF"/>
<path opacity="0.1" d="M29.013 32.5425L28.8367 32.6487C28.7856 32.6837 28.7328 32.7158 28.6785 32.7448C28.4843 32.8473 28.273 32.9074 28.0571 32.9216L32.5395 38.62L40.3587 40.6455C40.573 40.4715 40.7434 40.2428 40.8545 39.98L29.013 32.5425Z" fill="black"/>
<path opacity="0.05" d="M29.8116 32.0596L28.8367 32.6486C28.7856 32.6836 28.7328 32.7157 28.6785 32.7447C28.4843 32.8472 28.273 32.9073 28.0571 32.9215L30.1571 39.146L40.3611 40.6429C40.7631 40.3184 40.9997 39.8096 41 39.2692V39.0831L29.8116 32.0596Z" fill="black"/>
<path d="M16.5595 41.0001H39.3672C39.7181 41.002 40.0604 40.8828 40.3437 40.6601L27.4 32.5095C27.3456 32.4801 27.2928 32.4475 27.2418 32.4117L15.3023 25.0864H15.2968L14.907 24.8501V39.2202C14.9061 40.2023 15.646 40.9991 16.5595 41.0001Z" fill="#28A8EA"/>
<path opacity="0.1" d="M25.9767 15.3578V33.4883C25.9753 34.124 25.6158 34.6954 25.0674 34.9333C24.8976 35.0118 24.7146 35.0523 24.5297 35.0524H14.907V14.6498H16.4884V13.7998H24.5298C25.3285 13.8031 25.975 14.4991 25.9767 15.3578Z" fill="black"/>
<path opacity="0.2" d="M25.186 16.208V34.3385C25.188 34.5438 25.1475 34.7471 25.0674 34.9335C24.8478 35.5153 24.3232 35.8971 23.7391 35.8999H14.907V14.65H23.7391C23.9685 14.6475 24.1946 14.709 24.3953 14.8285C24.88 15.091 25.1859 15.6246 25.186 16.208Z" fill="black"/>
<path opacity="0.2" d="M25.186 16.208V32.6385C25.1822 33.4968 24.5375 34.1925 23.7391 34.1999H14.907V14.65H23.7391C23.9685 14.6475 24.1946 14.709 24.3953 14.8285C24.88 15.091 25.1859 15.6246 25.186 16.208Z" fill="black"/>
<path opacity="0.2" d="M24.3953 16.2079V32.6384C24.3945 33.4981 23.748 34.1957 22.9484 34.1999H14.907V14.6499H22.9483C23.7479 14.6504 24.3958 15.3476 24.3953 16.2071C24.3953 16.2074 24.3953 16.2077 24.3953 16.2079Z" fill="black"/>
<path d="M8.44934 14.6499H22.946C23.7464 14.6499 24.3953 15.3475 24.3953 16.2079V31.7918C24.3953 32.6523 23.7464 33.3499 22.946 33.3499H8.44934C7.64889 33.3499 7 32.6523 7 31.7918V16.2079C7 15.3475 7.6489 14.6499 8.44934 14.6499Z" fill="url(#paint1_linear_1707_3758)"/>
<path d="M11.5299 21.185C11.8871 20.3668 12.4637 19.6822 13.1856 19.2189C13.9851 18.7269 14.8954 18.4816 15.8163 18.51C16.6698 18.4901 17.512 18.7227 18.2508 19.1824C18.9456 19.6277 19.5051 20.2803 19.8615 21.0609C20.2496 21.921 20.4431 22.8676 20.4261 23.8234C20.4449 24.8223 20.2458 25.812 19.8449 26.7134C19.48 27.5218 18.9027 28.1976 18.1844 28.6573C17.4171 29.1311 16.5436 29.3698 15.6589 29.3475C14.7872 29.3701 13.9265 29.1349 13.1706 28.6675C12.4699 28.2216 11.9034 27.5683 11.5386 26.7856C11.1482 25.9379 10.9524 25.002 10.9677 24.0563C10.9515 23.0659 11.1436 22.0843 11.5299 21.185ZM13.2947 25.8005C13.4852 26.3177 13.8082 26.7663 14.2262 27.0942C14.6519 27.4141 15.1618 27.5791 15.6811 27.5651C16.2341 27.5886 16.7792 27.4179 17.234 27.0789C17.6467 26.752 17.9612 26.3022 18.1385 25.7852C18.3368 25.2077 18.4346 24.5961 18.4271 23.9806C18.4333 23.3593 18.3413 22.7414 18.1551 22.1531C17.9907 21.622 17.6864 21.1537 17.2791 20.805C16.8356 20.4499 16.292 20.2698 15.7396 20.295C15.209 20.2803 14.6878 20.4466 14.2507 20.7702C13.8256 21.0995 13.4965 21.552 13.3019 22.0749C12.87 23.2735 12.8678 24.6019 13.2955 25.8022L13.2947 25.8005Z" fill="white"/>
<path d="M32.3023 12.1001H39.4186V19.7501H32.3023V12.1001Z" fill="#50D9FF"/>
</g>
<defs>
<linearGradient id="paint0_linear_1707_3758" x1="27.9535" y1="24.8501" x2="27.9535" y2="41.0001" gradientUnits="userSpaceOnUse">
<stop stop-color="#35B8F1"/>
<stop offset="1" stop-color="#28A8EA"/>
</linearGradient>
<linearGradient id="paint1_linear_1707_3758" x1="10.0219" y1="13.4325" x2="22.6487" y2="33.7758" gradientUnits="userSpaceOnUse">
<stop stop-color="#1784D9"/>
<stop offset="0.5" stop-color="#107AD5"/>
<stop offset="1" stop-color="#0A63C9"/>
</linearGradient>
<clipPath id="clip0_1707_3758">
<rect width="34" height="34" fill="white" transform="translate(7 7)"/>
</clipPath>
</defs>
</svg>
